<?xml version="1.0" encoding="UTF-8" standalone="no"?>
<!DOCTYPE svg PUBLIC "-//W3C//DTD SVG 1.1//EN"
 "http://www.w3.org/Graphics/SVG/1.1/DTD/svg11.dtd">
<!-- Generated by graphviz version 15.0.0 (20260523.1842)
 -->
<!-- Title: Events Pages: 1 -->
<svg width="1257pt" height="471pt"
 viewBox="0.00 0.00 1257.00 471.00" xmlns="http://www.w3.org/2000/svg" xmlns:xlink="http://www.w3.org/1999/xlink">
<g id="graph0" class="graph" transform="scale(1 1) rotate(0) translate(21.6 449.6)">
<title>Events</title>
<polygon fill="white" stroke="none" points="-21.6,21.6 -21.6,-449.6 1235.7,-449.6 1235.7,21.6 -21.6,21.6"/>
<g id="clust1" class="cluster">
<title>cluster_marketplace</title>
<polygon fill="white" stroke="#94a3b8" stroke-dasharray="5,2" points="317.3,-8 317.3,-420 1206.1,-420 1206.1,-8 317.3,-8"/>
<text xml:space="preserve" text-anchor="middle" x="761.7" y="-400.8" font-family="Arial" font-size="16.00" fill="#475569">Маркетплейс</text>
</g>
<!-- provider -->
<g id="node1" class="node">
<title>provider</title>
<polygon fill="#f4f4f5" stroke="#a1a1aa" points="168.3,-274.08 0,-274.08 0,-223.92 168.3,-223.92 168.3,-274.08"/>
<text xml:space="preserve" text-anchor="middle" x="84.15" y="-251.65" font-family="Arial" font-size="13.00" fill="#0f172a">Платёжный провайдер</text>
<text xml:space="preserve" text-anchor="middle" x="84.15" y="-236.65" font-family="Arial" font-size="13.00" fill="#0f172a">[Внешняя система]</text>
</g>
<!-- payments -->
<g id="node4" class="node">
<title>payments</title>
<polygon fill="#f1f5f9" stroke="#64748b" points="476.85,-274.08 339.3,-274.08 339.3,-223.92 476.85,-223.92 476.85,-274.08"/>
<text xml:space="preserve" text-anchor="middle" x="408.08" y="-251.65" font-family="Arial" font-size="13.00" fill="#0f172a">Payments</text>
<text xml:space="preserve" text-anchor="middle" x="408.08" y="-236.65" font-family="Arial" font-size="13.00" fill="#0f172a">[Python / FastAPI]</text>
</g>
<!-- provider&#45;&gt;payments -->
<g id="edge8" class="edge">
<title>provider&#45;&gt;payments</title>
<path fill="none" stroke="#64748b" stroke-dasharray="5,2" d="M168.47,-249C218.58,-249 281.88,-249 330.69,-249"/>
<polygon fill="#64748b" stroke="#64748b" points="330.49,-251.45 337.49,-249 330.49,-246.55 330.49,-251.45"/>
<text xml:space="preserve" text-anchor="middle" x="253.8" y="-266.1" font-family="Arial" font-size="12.00" fill="#334155">Результат оплаты</text>
<text xml:space="preserve" text-anchor="middle" x="253.8" y="-251.85" font-family="Arial" font-size="12.00" fill="#334155">HTTPS webhook</text>
</g>
<!-- users -->
<g id="node2" class="node">
<title>users</title>
<polygon fill="#f1f5f9" stroke="#64748b" points="476.85,-80.08 339.3,-80.08 339.3,-29.92 476.85,-29.92 476.85,-80.08"/>
<text xml:space="preserve" text-anchor="middle" x="408.08" y="-57.65" font-family="Arial" font-size="13.00" fill="#0f172a">Users</text>
<text xml:space="preserve" text-anchor="middle" x="408.08" y="-42.65" font-family="Arial" font-size="13.00" fill="#0f172a">[Python / FastAPI]</text>
</g>
<!-- broker -->
<g id="node6" class="node">
<title>broker</title>
<polygon fill="#e2e8f0" stroke="#64748b" points="826.8,-203.6 683.85,-203.6 683.85,-130.4 826.8,-130.4 826.8,-203.6"/>
<text xml:space="preserve" text-anchor="middle" x="755.33" y="-169.65" font-family="Arial" font-size="13.00" fill="#0f172a">Брокер событий</text>
<text xml:space="preserve" text-anchor="middle" x="755.33" y="-154.65" font-family="Arial" font-size="13.00" fill="#0f172a">[RabbitMQ]</text>
</g>
<!-- users&#45;&gt;broker -->
<g id="edge1" class="edge">
<title>users&#45;&gt;broker</title>
<path fill="none" stroke="#64748b" stroke-dasharray="5,2" d="M477.18,-76.89C547.75,-99.58 647.85,-131.75 647.85,-131.75 647.85,-131.75 659.73,-135.68 675.55,-140.92"/>
<polygon fill="#64748b" stroke="#64748b" points="674.75,-143.24 682.16,-143.11 676.29,-138.58 674.75,-143.24"/>
<text xml:space="preserve" text-anchor="middle" x="580.35" y="-134.6" font-family="Arial" font-size="12.00" fill="#334155">Интересы пользователя</text>
</g>
<!-- catalog -->
<g id="node3" class="node">
<title>catalog</title>
<polygon fill="#f1f5f9" stroke="#64748b" points="476.85,-177.08 339.3,-177.08 339.3,-126.92 476.85,-126.92 476.85,-177.08"/>
<text xml:space="preserve" text-anchor="middle" x="408.08" y="-154.65" font-family="Arial" font-size="13.00" fill="#0f172a">Catalog</text>
<text xml:space="preserve" text-anchor="middle" x="408.08" y="-139.65" font-family="Arial" font-size="13.00" fill="#0f172a">[Python / FastAPI]</text>
</g>
<!-- catalog&#45;&gt;broker -->
<g id="edge2" class="edge">
<title>catalog&#45;&gt;broker</title>
<path fill="none" stroke="#64748b" stroke-dasharray="5,2" d="M477.29,-154.96C534.25,-157.44 615.51,-160.97 675.3,-163.57"/>
<polygon fill="#64748b" stroke="#64748b" points="674.98,-166 682.08,-163.86 675.19,-161.11 674.98,-166"/>
<text xml:space="preserve" text-anchor="middle" x="580.35" y="-165" font-family="Arial" font-size="12.00" fill="#334155">Изменение товара</text>
</g>
<!-- payments&#45;&gt;broker -->
<g id="edge3" class="edge">
<title>payments&#45;&gt;broker</title>
<path fill="none" stroke="#64748b" stroke-dasharray="5,2" d="M477.29,-232.8C534.37,-219.24 615.84,-199.89 675.67,-185.68"/>
<polygon fill="#64748b" stroke="#64748b" points="675.87,-188.15 682.12,-184.15 674.74,-183.38 675.87,-188.15"/>
<text xml:space="preserve" text-anchor="middle" x="580.35" y="-225.33" font-family="Arial" font-size="12.00" fill="#334155">Результат оплаты</text>
</g>
<!-- orders_out -->
<g id="node5" class="node">
<title>orders_out</title>
<polygon fill="#f1f5f9" stroke="#64748b" points="476.85,-371.08 339.3,-371.08 339.3,-320.92 476.85,-320.92 476.85,-371.08"/>
<text xml:space="preserve" text-anchor="middle" x="408.08" y="-348.65" font-family="Arial" font-size="13.00" fill="#0f172a">Orders</text>
<text xml:space="preserve" text-anchor="middle" x="408.08" y="-333.65" font-family="Arial" font-size="13.00" fill="#0f172a">[Python / FastAPI]</text>
</g>
<!-- orders_out&#45;&gt;broker -->
<g id="edge4" class="edge">
<title>orders_out&#45;&gt;broker</title>
<path fill="none" stroke="#64748b" stroke-dasharray="5,2" d="M471.19,-320.51C541.93,-291.47 647.85,-248 647.85,-248 647.85,-248 673.2,-228.71 699.16,-208.96"/>
<polygon fill="#64748b" stroke="#64748b" points="700.47,-211.05 704.56,-204.86 697.5,-207.15 700.47,-211.05"/>
<text xml:space="preserve" text-anchor="middle" x="580.35" y="-319.97" font-family="Arial" font-size="12.00" fill="#334155">Оплаченный заказ;</text>
<text xml:space="preserve" text-anchor="middle" x="580.35" y="-305.72" font-family="Arial" font-size="12.00" fill="#334155">изменение статуса</text>
</g>
<!-- feed -->
<g id="node7" class="node">
<title>feed</title>
<polygon fill="#f1f5f9" stroke="#64748b" points="1184.1,-95.08 1046.55,-95.08 1046.55,-44.92 1184.1,-44.92 1184.1,-95.08"/>
<text xml:space="preserve" text-anchor="middle" x="1115.33" y="-72.65" font-family="Arial" font-size="13.00" fill="#0f172a">Feed</text>
<text xml:space="preserve" text-anchor="middle" x="1115.33" y="-57.65" font-family="Arial" font-size="13.00" fill="#0f172a">[Python / FastAPI]</text>
</g>
<!-- broker&#45;&gt;feed -->
<g id="edge5" class="edge">
<title>broker&#45;&gt;feed</title>
<path fill="none" stroke="#64748b" stroke-dasharray="5,2" d="M827.05,-140.76C846.72,-133.47 862.8,-127.5 862.8,-127.5 862.8,-127.5 964.24,-104.31 1038.28,-87.38"/>
<polygon fill="#64748b" stroke="#64748b" points="1038.51,-89.85 1044.78,-85.9 1037.41,-85.07 1038.51,-89.85"/>
<text xml:space="preserve" text-anchor="middle" x="936.68" y="-144.6" font-family="Arial" font-size="12.00" fill="#334155">Товары, интересы,</text>
<text xml:space="preserve" text-anchor="middle" x="936.68" y="-130.35" font-family="Arial" font-size="12.00" fill="#334155">оплаченные заказы</text>
</g>
<!-- orders_in -->
<g id="node8" class="node">
<title>orders_in</title>
<polygon fill="#f1f5f9" stroke="#64748b" points="1184.1,-192.08 1046.55,-192.08 1046.55,-141.92 1184.1,-141.92 1184.1,-192.08"/>
<text xml:space="preserve" text-anchor="middle" x="1115.33" y="-169.65" font-family="Arial" font-size="13.00" fill="#0f172a">Orders</text>
<text xml:space="preserve" text-anchor="middle" x="1115.33" y="-154.65" font-family="Arial" font-size="13.00" fill="#0f172a">[Python / FastAPI]</text>
</g>
<!-- broker&#45;&gt;orders_in -->
<g id="edge6" class="edge">
<title>broker&#45;&gt;orders_in</title>
<path fill="none" stroke="#64748b" stroke-dasharray="5,2" d="M827.05,-167C887.9,-167 975.48,-167 1037.92,-167"/>
<polygon fill="#64748b" stroke="#64748b" points="1037.66,-169.45 1044.66,-167 1037.66,-164.55 1037.66,-169.45"/>
<text xml:space="preserve" text-anchor="middle" x="936.68" y="-169.85" font-family="Arial" font-size="12.00" fill="#334155">Результат оплаты</text>
</g>
<!-- notifications -->
<g id="node9" class="node">
<title>notifications</title>
<polygon fill="#f1f5f9" stroke="#64748b" points="1176.6,-289.08 1054.05,-289.08 1054.05,-238.92 1176.6,-238.92 1176.6,-289.08"/>
<text xml:space="preserve" text-anchor="middle" x="1115.33" y="-266.65" font-family="Arial" font-size="13.00" fill="#0f172a">Notifications</text>
<text xml:space="preserve" text-anchor="middle" x="1115.33" y="-251.65" font-family="Arial" font-size="13.00" fill="#0f172a">[Python worker]</text>
</g>
<!-- broker&#45;&gt;notifications -->
<g id="edge7" class="edge">
<title>broker&#45;&gt;notifications</title>
<path fill="none" stroke="#64748b" stroke-dasharray="5,2" d="M827.05,-186.16C890.47,-203.35 982.92,-228.4 1045.68,-245.4"/>
<polygon fill="#64748b" stroke="#64748b" points="1044.71,-247.68 1052.11,-247.14 1045.99,-242.95 1044.71,-247.68"/>
<text xml:space="preserve" text-anchor="middle" x="936.68" y="-238.19" font-family="Arial" font-size="12.00" fill="#334155">Изменение статуса заказа</text>
</g>
</g>
</svg>
